<svg width="480" height="483" viewBox="0 0 480 483" fill="none" xmlns="http://www.w3.org/2000/svg">
<path d="M356.795 21.2177C350.075 14.4911 342.097 9.15505 333.316 5.51444C324.535 1.87383 315.123 0 305.618 0C296.113 0 286.701 1.87383 277.92 5.51444C269.139 9.15505 261.161 14.4911 254.442 21.2177L244.033 31.6327C242.08 33.5867 238.913 33.5867 236.96 31.6327L226.551 21.2177C212.978 7.63676 194.57 0.0070395 175.375 0.00703964C156.18 0.00703978 137.771 7.63676 124.198 21.2177C110.625 34.7987 103 53.2185 103 72.4249C103 91.6313 110.625 110.051 124.198 123.632L236.96 236.461C238.913 238.415 242.08 238.415 244.033 236.461L356.795 123.632C363.518 116.909 368.85 108.926 372.489 100.139C376.127 91.3531 378 81.9356 378 72.4249C378 62.9142 376.127 53.4967 372.489 44.7104C368.85 35.9241 363.518 27.9412 356.795 21.2177Z" fill="url(#paint0_linear_3_17)"/>
<path fill-rule="evenodd" clip-rule="evenodd" d="M139 217C155.569 217 169 230.431 169 247V301H312V247C312 230.431 325.431 217 342 217H396C412.569 217 426 230.431 426 247V301H450C466.569 301 480 314.431 480 331V369C480 385.569 466.569 399 450 399H426V453C426 469.569 412.569 483 396 483H342C325.431 483 312 469.569 312 453V399H169V453C169 469.569 155.569 483 139 483H85C68.4315 483 55 469.569 55 453V399H30C13.4315 399 1.61075e-07 385.569 0 369V331C0 314.431 13.4315 301 30 301H55V247C55 230.431 68.4315 217 85 217H139ZM86 240C85.81 240 85.6212 240.005 85.4336 240.015C79.6217 240.309 75 245.115 75 251V449C75 449.19 75.0051 449.379 75.0146 449.566C75.3094 455.378 80.1148 460 86 460H139C145.075 460 150 455.075 150 449V251C150 244.925 145.075 240 139 240H86ZM342.434 240.015C336.622 240.309 332 245.115 332 251V449C332 449.19 332.005 449.379 332.015 449.566C332.309 455.378 337.115 460 343 460H396C402.075 460 407 455.075 407 449V251C407 244.925 402.075 240 396 240H343C342.81 240 342.621 240.005 342.434 240.015ZM36 318C27.7157 318 21 324.716 21 333V367C21 375.284 27.7157 382 36 382H55V318H36ZM169 382H312V318H169V382ZM426 382H445C453.284 382 460 375.284 460 367V333C460 324.716 453.284 318 445 318H426V382Z" fill="#EEF2F9"/>
<defs>
<linearGradient id="paint0_linear_3_17" x1="240" y1="0" x2="240" y2="483" gradientUnits="userSpaceOnUse">
<stop stop-color="#A672FF"/>
<stop offset="1" stop-color="#00BEDB"/>
</linearGradient>
</defs>
</svg>
