<svg width="480" height="480" viewBox="0 0 480 480" fill="none" xmlns="http://www.w3.org/2000/svg">
<path d="M356.795 21.2177C350.075 14.4911 342.097 9.15505 333.316 5.51444C324.535 1.87383 315.123 0 305.618 0C296.113 0 286.701 1.87383 277.92 5.51444C269.139 9.15505 261.161 14.4911 254.442 21.2177L244.033 31.6327C242.08 33.5867 238.913 33.5867 236.96 31.6327L226.551 21.2177C212.978 7.63676 194.57 0.0070395 175.375 0.00703964C156.18 0.00703978 137.771 7.63676 124.198 21.2177C110.625 34.7987 103 53.2185 103 72.4249C103 91.6313 110.625 110.051 124.198 123.632L236.96 236.461C238.913 238.415 242.08 238.415 244.033 236.461L356.795 123.632C363.518 116.909 368.85 108.926 372.489 100.139C376.127 91.3531 378 81.9356 378 72.4249C378 62.9142 376.127 53.4967 372.489 44.7104C368.85 35.9241 363.518 27.9412 356.795 21.2177Z" fill="url(#paint0_linear_1_120)"/>
<path fill-rule="evenodd" clip-rule="evenodd" d="M138 214C155.121 214 169 227.879 169 245V298H306V245C306 227.879 319.879 214 337 214H389C406.121 214 420 227.879 420 245V298H442C462.987 298 480 315.013 480 336V358C480 378.987 462.987 396 442 396H420V449C420 466.121 406.121 480 389 480H337C319.879 480 306 466.121 306 449V396H169V449C169 466.121 155.121 480 138 480H86C68.8792 480 55 466.121 55 449V396H38C17.0132 396 0 378.987 0 358V336C0 315.013 17.0132 298 38 298H55V245C55 227.879 68.8792 214 86 214H138ZM88 449H137V245H88V449ZM339 245V449H388V245H339ZM41 329C36.5817 329 33 332.582 33 337V358C33 362.418 36.5817 366 41 366H55V329H41ZM169 366H306V329H169V366ZM420 366H441C445.418 366 449 362.418 449 358V337C449 332.582 445.418 329 441 329H420V366Z" fill="#A672FF"/>
<defs>
<linearGradient id="paint0_linear_1_120" x1="240" y1="0" x2="240" y2="480" gradientUnits="userSpaceOnUse">
<stop stop-color="#A672FF"/>
<stop offset="1" stop-color="#00BEDB"/>
</linearGradient>
</defs>
</svg>
